<svg width="463" height="380" viewBox="0 0 463 380" fill="none" xmlns="http://www.w3.org/2000/svg">
<path d="M302.848 216.68L302.12 216.752L214 298.151L255.868 379.205L376.083 369.12L462.976 286.305L422.4 206.751L422.017 205.075L302.848 216.68ZM371.55 364.937L258.466 374.419L220.468 300.657L333.89 291.072L371.55 364.937ZM223.559 295.832L304.017 221.148L413.471 210.478L334.241 286.461L223.559 295.832ZM457.294 285.227L375.804 363.268L338.033 289.234L419.523 211.18L457.294 285.227Z" fill="#F8FDF8"/>
<path d="M413.464 210.472L334.267 286.48L223.559 295.838L304.017 221.135L413.464 210.472Z" fill="#B2FFA9"/>
<path d="M333.877 291.072L371.55 364.931L258.453 374.419L220.455 300.657L333.877 291.072Z" fill="#0D1B1E"/>
<path d="M419.523 211.18L457.294 285.227L375.804 363.268L338.033 289.214L419.523 211.18Z" fill="#0D1B1E"/>
<path d="M98.2318 69.6197L53.8645 163.835L183.904 133.24L221.034 42.7126L98.2318 69.6197ZM180.677 129.464L100.625 148.295L122.821 101.206L199.791 82.849L180.677 129.464ZM119.733 97.4044L95.106 149.589L61.7453 157.438L101.282 73.4527L213.728 48.8253L201.837 77.8098L119.733 97.4044Z" fill="#0D1B1E"/>
<path d="M73.497 46.6342L0 201.976L56.1252 299.16L268.691 252.601L329.748 98.3202L272.947 0L73.497 46.6342ZM58.2912 294.171L5.94848 203.334L208.556 155.923L263.494 249.223L58.2912 294.171ZM207.95 151.522L6.4347 198.674L76.5281 50.461L268.136 5.67061L207.95 151.522ZM324.81 98.7243L266.589 245.857L212.067 153.195L272.24 7.445L324.81 98.7243Z" fill="#0D1B1E"/>
<path d="M263.513 249.217L58.2912 294.165L5.94849 203.328L208.556 155.917L263.513 249.217Z" fill="#0D1B1E"/>
<path d="M272.24 7.44507L324.836 98.7181L266.614 245.845L212.067 153.195L272.24 7.44507Z" fill="#0D1B1E"/>
<path d="M76.5786 50.4546L6.48523 198.667L208.001 151.515L268.211 5.64526L76.5786 50.4546ZM183.929 133.241L53.8898 163.835L98.2571 69.6197L221.059 42.7127L183.929 133.241Z" fill="#B2FFA9"/>
<path d="M213.747 48.8318L201.856 77.8164L119.734 97.4046L95.1314 149.59L61.7644 157.439L101.301 73.4718L213.747 48.8318Z" fill="#0D1B1E"/>
</svg>
