<svg width="362" height="255" viewBox="0 0 362 255" fill="none" xmlns="http://www.w3.org/2000/svg">
<path fill-rule="evenodd" clip-rule="evenodd" d="M116.073 -18.033C7.42867 -13.1507 0 -4.78099 0 108.674C0.232146 207.948 8.58758 242.357 32.9629 242.357C34.3558 242.357 43.6425 245.146 53.6248 248.401C103.536 265.141 343.111 247.239 353.093 225.85C360.986 209.11 365.164 72.4059 359.128 34.2774C352.86 -4.31601 337.307 -16.4055 296.217 -15.4755C260.931 -14.5456 266.27 0.33379 302.021 0.33379C328.718 0.33379 328.949 1.03131 329.414 110.302C329.878 214.923 330.111 212.365 314.093 216.318C284.842 223.525 116.072 225.152 43.643 226.315C36.9107 213.528 35.517 217.712 28.7847 116.347C22.5168 19.1655 22.7494 18.7006 90.7681 9.63342C138.358 3.35617 146.947 2.65868 198.716 1.26374C246.77 -0.131205 254.431 -1.06117 254.431 -4.54853C254.199 -15.2431 190.824 -21.5203 116.073 -18.033ZM298.307 21.2579C290.414 27.5352 272.305 46.832 212.876 110.302C193.144 131.459 193.841 131.459 173.645 117.277C142.769 95.8875 116.073 79.6131 95.1798 60.7813C65.4651 34.0449 46.6609 23.5829 40.1608 30.0926C36.2143 34.045 69.8745 61.7113 114.679 107.047L134.18 126.809C133.483 127.506 93.5539 158.427 75.6786 182.606C63.6071 198.881 76.376 201.903 87.0547 194.231C98.1977 185.861 116.768 165.17 144.162 136.806L153.912 140.758C169.466 147.035 199.412 142.851 209.858 133.086C217.287 126.111 224.021 123.786 224.021 127.971C224.021 130.993 272.539 178.887 289.718 193.766C299.468 202.136 328.253 211.435 303.878 183.071C286.002 162.612 250.717 127.041 237.949 118.207C234.932 116.114 232.842 114.022 233.307 113.557C266.968 91.7026 301.788 54.7366 313.859 33.3475C328.949 7.54103 302.254 18.2356 298.307 21.2579Z" fill="#0D1B1E" fill-opacity="0.36"/>
</svg>
