<svg width="254" height="252" viewBox="0 0 254 252" fill="none" xmlns="http://www.w3.org/2000/svg">
<path d="M107.977 11.0091C116.068 -3.66967 137.165 -3.66967 145.256 11.0091V11.0091C150.899 21.2454 163.74 25.016 174.021 19.4553V19.4553C188.764 11.4813 206.511 22.8867 205.382 39.6098V39.6098C204.595 51.2717 213.359 61.3865 225.015 62.2668V62.2668C241.728 63.5293 250.492 82.719 240.501 96.177V96.177C233.534 105.562 235.438 118.809 244.767 125.851V125.851C258.145 135.949 255.143 156.831 239.462 162.751V162.751C228.527 166.879 222.967 179.053 227.008 190.021V190.021C232.803 205.749 218.988 221.692 202.596 218.195V218.195C191.164 215.756 179.905 222.992 177.375 234.403V234.403C173.747 250.767 153.505 256.71 141.606 244.906V244.906C133.308 236.674 119.925 236.674 111.627 244.906V244.906C99.7276 256.71 79.486 250.767 75.8579 234.403V234.403C73.3278 222.992 62.0687 215.756 50.6375 218.195V218.195C34.2453 221.692 20.4303 205.749 26.225 190.021V190.021C30.2659 179.053 24.7061 166.879 13.7711 162.751V162.751C-1.90985 156.831 -4.91214 135.949 8.46571 125.851V125.851C17.7948 118.809 19.6995 105.562 12.7322 96.177V96.177C2.74124 82.719 11.5049 63.5293 28.2185 62.2668V62.2668C39.8737 61.3865 48.6382 51.2717 47.8509 39.6099V39.6099C46.7219 22.8867 64.469 11.4813 79.2119 19.4553V19.4553C89.4929 25.016 102.334 21.2454 107.977 11.0091V11.0091Z" fill="#D9D9D9"/>
</svg>
