<svg width="110" height="110" viewBox="0 0 110 110" fill="none" xmlns="http://www.w3.org/2000/svg">
<path d="M6.875 41.7083C6.875 29.5155 6.875 23.4192 9.24788 18.7621C11.3351 14.6656 14.6656 11.3351 18.7621 9.24788C23.4192 6.875 29.5155 6.875 41.7083 6.875H68.2917C80.4845 6.875 86.5808 6.875 91.2379 9.24788C95.3343 11.3351 98.665 14.6656 100.752 18.7621C103.125 23.4192 103.125 29.5155 103.125 41.7083V68.2917C103.125 80.4845 103.125 86.5808 100.752 91.2379C98.665 95.3343 95.3343 98.665 91.2379 100.752C86.5808 103.125 80.4845 103.125 68.2917 103.125H41.7083C29.5155 103.125 23.4192 103.125 18.7621 100.752C14.6656 98.665 11.3351 95.3343 9.24788 91.2379C6.875 86.5808 6.875 80.4845 6.875 68.2917V41.7083Z" fill="#E6001F"/>
<path d="M24.0625 79.0625C24.0625 79.0625 45.446 27.5135 45.3954 27.5H61.6348L85.9375 79.0625H67.5817C67.5952 79.0898 53.8184 47.4247 53.6456 47.1064C53.6156 47.3825 44.5101 68.5749 44.4001 68.601H54.2128C54.1684 68.6549 58.4794 78.9642 58.4794 79.0625H24.0625Z" fill="white"/>
</svg>
