<svg width="227" height="212" viewBox="0 0 227 212" fill="none" xmlns="http://www.w3.org/2000/svg">
<path d="M152.742 31.9051C153.075 28.9167 152.528 26.3755 151.105 24.3361C146.887 18.3082 136.104 18.1395 119.931 23.7582C104.854 29.0113 86.7521 38.7855 69.0477 51.2349C51.3434 63.6842 36.0498 77.4244 25.9911 89.8642C20.4596 96.7611 16.8311 102.816 15.2288 107.893C13.7344 112.628 13.9809 116.504 16.0207 119.395C16.9828 120.747 18.279 121.827 19.7827 122.529L174.177 211.116L152.742 31.9051ZM21.9356 118.598L20.9123 118.014C20.4368 117.689 20.022 117.283 19.6868 116.815C16.8599 112.803 20.5216 103.772 29.4806 92.6698C39.267 80.5399 54.2237 67.1228 71.6015 54.8791C109.243 28.3903 141.764 18.8722 147.418 26.8968C147.515 27.0431 147.603 27.1943 147.684 27.3498L148.22 31.8604C148.087 32.7329 147.885 33.5935 147.616 34.4342C146.208 38.8949 142.803 44.6243 137.622 51.048C127.838 63.1718 112.879 76.595 95.5034 88.8326C61.348 112.885 31.4059 122.949 21.9318 118.61L21.9356 118.598ZM31.1171 123.864C35.6472 123.415 41.0584 122.13 47.1923 119.979C62.272 114.72 80.3715 104.952 98.0778 92.4968C115.784 80.0413 131.076 66.3072 141.133 53.8734C144.276 50.0723 147.048 45.9794 149.412 41.6504L168.692 202.769L31.1171 123.864Z" fill="#0D1B1E"/>
<path d="M168.67 202.776L31.1134 123.877C35.6434 123.427 41.0546 122.142 47.1885 119.992C62.2682 114.733 80.3678 104.964 98.0741 92.509C115.78 80.0535 131.072 66.3194 141.129 53.8856C144.272 50.0845 147.044 45.9916 149.408 41.6626L168.67 202.776Z" fill="#B2FFA9"/>
<path d="M21.9316 118.61L20.9083 118.026C20.4329 117.701 20.0181 117.295 19.6829 116.827C16.856 112.815 20.5176 103.785 29.4766 92.682C39.263 80.5521 54.2198 67.1351 71.5976 54.8913C109.239 28.4026 141.76 18.8845 147.414 26.909C147.511 27.0554 147.6 27.2066 147.68 27.3621L148.216 31.8725C148.083 32.7451 147.881 33.6057 147.612 34.4463C146.204 38.9071 142.799 44.6365 137.618 51.0602C127.834 63.184 112.875 76.6072 95.4995 88.8448C61.3479 112.885 31.4058 122.949 21.9316 118.61Z" fill="#0D1B1E"/>
</svg>
