<svg width="227" height="221" viewBox="0 0 227 221" fill="none" xmlns="http://www.w3.org/2000/svg">
<path d="M152.742 40.9051C153.075 37.9167 152.528 35.3755 151.105 33.3361C146.887 27.3082 136.104 27.1395 119.931 32.7582C104.854 38.0113 86.7521 47.7855 69.0477 60.2349C51.3434 72.6842 36.0498 86.4244 25.9911 98.8642C20.4596 105.761 16.8311 111.816 15.2288 116.893C13.7344 121.628 13.9809 125.504 16.0207 128.395C16.9828 129.747 18.279 130.827 19.7827 131.529L174.177 220.116L152.742 40.9051ZM21.9356 127.598L20.9123 127.014C20.4368 126.689 20.022 126.283 19.6868 125.815C16.8599 121.803 20.5216 112.772 29.4806 101.67C39.267 89.5399 54.2237 76.1228 71.6015 63.8791C109.243 37.3903 141.764 27.8722 147.418 35.8968C147.515 36.0431 147.603 36.1943 147.684 36.3498L148.22 40.8604C148.087 41.7329 147.885 42.5935 147.616 43.4342C146.208 47.8949 142.803 53.6243 137.622 60.048C127.838 72.1718 112.879 85.595 95.5034 97.8326C61.348 121.885 31.4059 131.949 21.9318 127.61L21.9356 127.598ZM31.1171 132.864C35.6472 132.415 41.0584 131.13 47.1923 128.979C62.272 123.72 80.3715 113.952 98.0778 101.497C115.784 89.0413 131.076 75.3072 141.133 62.8734C144.276 59.0723 147.048 54.9794 149.412 50.6504L168.692 211.769L31.1171 132.864Z" fill="#B2FFA9"/>
<path d="M168.67 211.776L31.1134 132.877C35.6434 132.427 41.0546 131.142 47.1885 128.992C62.2682 123.733 80.3678 113.964 98.0741 101.509C115.78 89.0536 131.072 75.3194 141.129 62.8857C144.272 59.0845 147.044 54.9916 149.408 50.6626L168.67 211.776Z" fill="#0D1B1E"/>
<path d="M21.9318 127.61L20.9084 127.026C20.433 126.701 20.0182 126.295 19.683 125.827C16.8561 121.815 20.5177 112.785 29.4767 101.682C39.2632 89.5521 54.2199 76.135 71.5977 63.8913C109.239 37.4025 141.76 27.8844 147.414 35.9089C147.511 36.0553 147.6 36.2065 147.681 36.362L148.217 40.8725C148.083 41.745 147.881 42.6056 147.612 43.4463C146.205 47.907 142.799 53.6365 137.619 60.0602C127.834 72.184 112.875 85.6071 95.4996 97.8448C61.348 121.885 31.406 131.949 21.9318 127.61Z" fill="#B2FFA9"/>
</svg>
