<svg width="28" height="28" viewBox="0 0 28 28" fill="none" xmlns="http://www.w3.org/2000/svg">
<path d="M14.0001 18.1708C13.8445 18.1708 13.6987 18.1467 13.5626 18.0985C13.4265 18.0502 13.3001 17.9674 13.1834 17.85L8.98341 13.65C8.75008 13.4166 8.63808 13.1444 8.64742 12.8333C8.65675 12.5222 8.76875 12.25 8.98341 12.0166C9.21675 11.7833 9.49403 11.662 9.81525 11.6526C10.1365 11.6433 10.4134 11.7549 10.6459 11.9875L12.8334 14.175V5.8333C12.8334 5.50274 12.9454 5.22585 13.1694 5.00263C13.3934 4.77941 13.6703 4.66741 14.0001 4.66663C14.3299 4.66585 14.6071 4.77785 14.8319 5.00263C15.0567 5.22741 15.1683 5.5043 15.1667 5.8333V14.175L17.3542 11.9875C17.5876 11.7541 17.8649 11.6421 18.1861 11.6515C18.5073 11.6608 18.7842 11.7825 19.0167 12.0166C19.2306 12.25 19.3426 12.5222 19.3527 12.8333C19.3629 13.1444 19.2509 13.4166 19.0167 13.65L14.8167 17.85C14.7001 17.9666 14.5737 18.0495 14.4376 18.0985C14.3015 18.1475 14.1556 18.1716 14.0001 18.1708ZM7.00008 23.3333C6.35841 23.3333 5.8093 23.105 5.35275 22.6485C4.89619 22.1919 4.66753 21.6424 4.66675 21V18.6666C4.66675 18.3361 4.77875 18.0592 5.00275 17.836C5.22675 17.6127 5.50364 17.5007 5.83341 17.5C6.16319 17.4992 6.44047 17.6112 6.66525 17.836C6.89003 18.0607 7.00164 18.3376 7.00008 18.6666V21H21.0001V18.6666C21.0001 18.3361 21.1121 18.0592 21.3361 17.836C21.5601 17.6127 21.837 17.5007 22.1667 17.5C22.4965 17.4992 22.7738 17.6112 22.9986 17.836C23.2234 18.0607 23.335 18.3376 23.3334 18.6666V21C23.3334 21.6416 23.1051 22.1911 22.6486 22.6485C22.192 23.1058 21.6425 23.3341 21.0001 23.3333H7.00008Z" fill="black"/>
</svg>
