<svg width="110" height="110" viewBox="0 0 110 110" fill="none" xmlns="http://www.w3.org/2000/svg">
<path fill-rule="evenodd" clip-rule="evenodd" d="M55 55C55 46.4568 61.9255 39.5312 70.4688 39.5312C79.012 39.5312 85.9375 46.4568 85.9375 55C85.9375 63.5432 79.012 70.4688 70.4688 70.4688C61.9255 70.4688 55 63.5432 55 55Z" fill="#1ABCFE"/>
<path fill-rule="evenodd" clip-rule="evenodd" d="M24.0625 85.9375C24.0625 77.3943 30.9881 70.4688 39.5312 70.4688H55V85.9375C55 94.4807 48.0745 101.406 39.5312 101.406C30.9881 101.406 24.0625 94.4807 24.0625 85.9375Z" fill="#0ACF83"/>
<path fill-rule="evenodd" clip-rule="evenodd" d="M55 8.59375V39.5312H70.4688C79.012 39.5312 85.9375 32.6057 85.9375 24.0625C85.9375 15.5193 79.012 8.59375 70.4688 8.59375H55Z" fill="#FF7262"/>
<path fill-rule="evenodd" clip-rule="evenodd" d="M24.0625 24.0625C24.0625 32.6057 30.9881 39.5312 39.5312 39.5312H55V8.59375H39.5312C30.9881 8.59375 24.0625 15.5193 24.0625 24.0625Z" fill="#F24E1E"/>
<path fill-rule="evenodd" clip-rule="evenodd" d="M24.0625 55C24.0625 63.5432 30.9881 70.4688 39.5312 70.4688H55V39.5312H39.5312C30.9881 39.5312 24.0625 46.4568 24.0625 55Z" fill="#A259FF"/>
<path d="M97.3333 14.6667L101 18M101 18V15.2222M101 18H97.9444M97.3333 11.3333L101 8M101 8V10.7778M101 8H97.9444M90 15.2222V18M90 18H93.0556M90 18L93.6667 14.6667M90 10.7778V8M90 8H93.0556M90 8L93.6667 11.3333" stroke="#0D1B1E" stroke-linecap="round" stroke-linejoin="round"/>
</svg>
