<svg width="208" height="140" viewBox="0 0 208 140" fill="none" xmlns="http://www.w3.org/2000/svg">
<path d="M158.093 29.7233C156.064 25.0723 148.177 24.0125 134.664 26.555C122.385 28.8608 106.96 33.9234 91.2259 40.8012C75.4914 47.6791 61.3129 55.5718 51.2779 63.0134C40.2339 71.2161 35.6618 77.7219 37.697 82.3672C39.0105 85.3777 42.7708 86.8773 48.9383 86.8773C52.6695 86.8196 56.3888 86.4423 60.0556 85.7498L60.0951 85.7949L60.1797 85.7216C60.4954 85.6652 60.8055 85.6202 61.1268 85.5525C73.4055 83.2411 88.83 78.1785 104.536 71.3006C120.243 64.4228 134.455 56.5358 144.49 49.0942C155.557 40.8689 160.129 34.3744 158.093 29.7233ZM103.003 67.6813C90.4931 73.1441 78.1975 77.44 67.6213 80.084C77.0587 73.5331 89.6982 66.6665 103.702 60.5497C114.995 55.6052 126.665 51.5672 138.599 48.474C129.088 54.9629 116.64 61.728 103.003 67.6813ZM146.181 42.7406C133.328 45.176 116.866 50.4754 102.101 56.936C84.2015 64.761 68.3993 73.8489 58.4884 82.0008C51.9714 83.0607 42.6242 83.7372 41.3332 80.7944C39.9069 77.5302 48.4027 70.0829 53.6513 66.1817C63.4495 58.9092 77.3687 51.18 92.8326 44.4149C108.297 37.6498 123.422 32.6887 135.419 30.428C139.304 29.6769 143.246 29.2619 147.202 29.1878C150.827 29.1878 153.815 29.7516 154.531 31.3019C155.574 33.8106 150.804 38.7999 146.159 42.7406H146.181Z" fill="#0D1B1E"/>
<path d="M206.385 41.3819L194.388 13.9381C189.952 3.79043 175.593 -1.07482 153.933 0.199278C132.944 1.43955 107.338 8.26105 81.8394 19.4066C56.3405 30.5521 33.9198 44.7307 18.7772 59.3039C3.1385 74.3281 -3.03464 88.1853 1.40215 98.3217L13.399 125.771C17.3453 134.848 29.3026 139.713 47.3034 139.713C49.4081 139.713 51.5918 139.645 53.8543 139.51C74.8431 138.27 100.449 131.448 125.948 120.297C151.447 109.146 173.868 94.9786 189.01 80.4111C204.649 65.3812 210.816 51.5183 206.385 41.3819ZM5.0158 96.7432C1.34573 88.3544 7.36105 75.7431 21.5114 62.1396C36.3496 47.8877 58.3362 33.9967 83.4179 23.0316C108.5 12.0664 133.626 5.35204 154.17 4.1456C156.329 4.01029 158.409 3.95394 160.411 3.95394C176.585 3.95394 187.505 8.05245 190.775 15.5223C194.439 23.911 188.429 36.5223 174.273 50.1258C159.441 64.3833 137.454 78.28 112.373 89.2452C87.2909 100.21 62.1642 106.913 41.6208 108.131C22.0245 109.287 8.68588 105.138 5.0158 96.7432ZM186.276 77.5753C171.438 91.8272 149.451 105.718 124.369 116.683C99.2878 127.648 74.161 134.368 53.6176 135.575C34.0213 136.702 20.6827 132.581 17.0183 124.187L9.46952 106.925C15.5074 110.437 24.2626 112.269 35.3067 112.269C37.4095 112.269 39.5912 112.207 41.8519 112.072C62.8463 110.837 88.4523 104.01 113.951 92.8645C139.45 81.719 161.871 67.5517 177.008 52.9785C187.234 43.1465 193.413 33.8106 195.223 25.7151L202.788 42.9661C206.442 51.3548 200.426 63.9831 186.276 77.5697V77.5753Z" fill="#0D1B1E"/>
<path d="M190.775 15.4997C187.505 8.0299 176.585 3.93135 160.411 3.93135C158.409 3.93135 156.329 3.98774 154.17 4.12304C133.626 5.32949 108.505 12.0157 83.4179 23.009C58.3305 34.0023 36.3495 47.8652 21.5113 62.117C7.36098 75.7206 1.34565 88.3319 5.01573 96.7206C8.68581 105.109 22.0244 109.264 41.6207 108.109C62.1641 106.891 87.2852 100.216 112.373 89.2226C137.46 78.2293 159.441 64.3608 174.273 50.1033C188.429 36.5223 194.439 23.911 190.775 15.4997ZM144.513 49.0604C134.478 56.502 120.271 64.389 104.559 71.2668C88.8469 78.1447 73.4055 83.2073 61.1493 85.5187C60.828 85.5864 60.5179 85.6314 60.2022 85.6878L60.1177 85.7611L60.0782 85.716C56.4114 86.4085 52.692 86.7858 48.9609 86.8435C42.799 86.8435 39.033 85.3383 37.7194 82.3334C35.6843 77.6881 40.2564 71.1823 51.3005 62.9796C61.3354 55.5379 75.5421 47.6509 91.2485 40.7674C106.955 33.8839 122.407 28.827 134.686 26.5212C148.216 23.9787 156.109 25.0385 158.116 29.6895C160.123 34.3406 155.557 40.8689 144.513 49.0829V49.0604Z" fill="#B2FFA9"/>
<path d="M146.159 42.7406C133.305 45.176 116.843 50.4754 102.078 56.9361C84.179 64.7611 68.3768 73.8489 58.4659 82.0008C51.9488 83.0607 42.6017 83.7372 41.3107 80.7944C39.8843 77.5302 48.3803 70.083 53.6289 66.1817C63.427 58.9092 77.3462 51.1801 92.8102 44.415C108.274 37.6498 123.4 32.6887 135.397 30.4281C139.281 29.6769 143.223 29.2619 147.179 29.1878C150.804 29.1878 153.792 29.7516 154.508 31.3019C155.574 33.8107 150.804 38.7999 146.159 42.7406Z" fill="#0D1B1E"/>
<path d="M186.276 77.5697C171.438 91.8272 149.451 105.718 124.369 116.683C99.2877 127.648 74.161 134.363 53.6176 135.575C34.0213 136.702 20.6827 132.581 17.0182 124.187L9.46948 106.925C15.5074 110.437 24.2626 112.269 35.3066 112.269C37.4095 112.269 39.5912 112.207 41.8519 112.072C62.8463 110.832 88.4523 104.01 113.951 92.8588C139.45 81.7077 161.871 67.546 177.008 52.9728C187.234 43.1465 193.413 33.805 195.223 25.7094L202.788 42.9661C206.442 51.3548 200.426 63.9831 186.276 77.5697Z" fill="#0D1B1E"/>
</svg>
