<svg width="249" height="175" viewBox="0 0 249 175" fill="none" xmlns="http://www.w3.org/2000/svg">
<path d="M88.8476 11.6052L88.1203 11.6766L0 93.0754L41.8683 174.13L162.083 164.044L248.976 81.2299L208.4 1.67548L208.017 0L88.8476 11.6052ZM157.55 159.862L44.466 169.344L6.46824 95.5821L119.89 85.9966L157.55 159.862ZM9.5595 90.757L90.0166 16.0732L199.471 5.40317L120.241 81.3858L9.5595 90.757ZM243.294 80.1518L161.804 158.193L124.033 84.1588L205.523 6.1046L243.294 80.1518Z" fill="#F8FDF8"/>
<path d="M199.464 5.39648L120.267 81.4051L9.55957 90.7633L90.0167 16.0601L199.464 5.39648Z" fill="#B2FFA9"/>
<path d="M119.877 85.9966L157.55 159.856L44.4531 169.344L6.45532 95.5821L119.877 85.9966Z" fill="#0D1B1E"/>
<path d="M205.523 6.10449L243.294 80.1517L161.804 158.193L124.033 84.1392L205.523 6.10449Z" fill="#0D1B1E"/>
</svg>
