<svg width="327" height="360" viewBox="0 0 327 360" fill="none" xmlns="http://www.w3.org/2000/svg">
<path d="M277.308 249.789C275.279 245.138 267.392 244.078 253.879 246.62C241.6 248.926 226.175 253.989 210.441 260.867C194.706 267.744 180.528 275.637 170.493 283.079C159.449 291.281 154.877 297.787 156.912 302.433C158.225 305.443 161.986 306.943 168.153 306.943C171.884 306.885 175.604 306.508 179.27 305.815L179.31 305.86L179.395 305.787C179.71 305.731 180.02 305.686 180.342 305.618C192.62 303.306 208.045 298.244 223.751 291.366C239.457 284.488 253.67 276.601 263.705 269.16C274.771 260.934 279.344 254.44 277.308 249.789ZM222.218 287.747C209.708 293.21 197.412 297.505 186.836 300.149C196.274 293.599 208.913 286.732 222.917 280.615C234.21 275.671 245.879 271.633 257.814 268.539C248.303 275.028 235.855 281.793 222.218 287.747ZM265.396 262.806C252.542 265.241 236.081 270.541 221.316 277.001C203.416 284.826 187.614 293.914 177.703 302.066C171.186 303.126 161.839 303.803 160.548 300.86C159.122 297.596 167.618 290.148 172.866 286.247C182.664 278.975 196.584 271.245 212.047 264.48C227.511 257.715 242.637 252.754 254.634 250.493C258.519 249.742 262.461 249.327 266.417 249.253C270.041 249.253 273.029 249.817 273.745 251.367C274.788 253.876 270.019 258.865 265.374 262.806H265.396Z" fill="#0D1B1E"/>
<path d="M325.6 261.447L313.603 234.003C309.166 223.856 294.807 218.991 273.148 220.265C252.159 221.505 226.553 228.326 201.054 239.472C175.555 250.617 153.135 264.796 137.992 279.369C122.353 294.393 116.18 308.251 120.617 318.387L132.614 345.837C136.56 354.913 148.517 359.778 166.518 359.778C168.623 359.778 170.807 359.711 173.069 359.575C194.058 358.335 219.664 351.514 245.163 340.362C270.662 329.211 293.082 315.044 308.225 300.476C323.864 285.447 330.031 271.584 325.6 261.447ZM124.231 316.809C120.561 308.42 126.576 295.808 140.726 282.205C155.564 267.953 177.551 254.062 202.633 243.097C227.714 232.132 252.841 225.417 273.385 224.211C275.544 224.076 277.624 224.019 279.625 224.019C295.8 224.019 306.72 228.118 309.99 235.588C313.654 243.976 307.644 256.588 293.488 270.191C278.656 284.449 256.669 298.345 231.587 309.311C206.506 320.276 181.379 326.979 160.836 328.196C141.239 329.352 127.901 325.203 124.231 316.809ZM305.491 297.641C290.653 311.893 268.666 325.784 243.584 336.749C218.503 347.714 193.376 354.434 172.832 355.64C153.236 356.768 139.898 352.647 136.233 344.252L128.684 326.99C134.722 330.502 143.477 332.334 154.522 332.334C156.624 332.334 158.806 332.272 161.067 332.137C182.061 330.903 207.667 324.075 233.166 312.93C258.665 301.784 281.086 287.617 296.223 273.044C306.449 263.212 312.628 253.876 314.438 245.78L322.003 263.031C325.656 271.42 319.641 284.048 305.491 297.635V297.641Z" fill="#0D1B1E"/>
<path d="M309.989 235.565C306.72 228.095 295.8 223.997 279.625 223.997C277.624 223.997 275.544 224.053 273.385 224.188C252.841 225.395 227.72 232.081 202.633 243.074C177.545 254.068 155.564 267.931 140.726 282.182C126.576 295.786 120.56 308.397 124.231 316.786C127.901 325.175 141.239 329.33 160.836 328.174C181.379 326.956 206.5 320.281 231.587 309.288C256.675 298.295 278.656 284.426 293.488 270.169C307.644 256.588 313.654 243.976 309.989 235.565ZM263.727 269.126C253.692 276.567 239.486 284.454 223.774 291.332C208.062 298.21 192.62 303.273 180.364 305.584C180.043 305.652 179.733 305.697 179.417 305.753L179.333 305.826L179.293 305.781C175.626 306.474 171.907 306.851 168.176 306.909C162.014 306.909 158.248 305.404 156.934 302.399C154.899 297.753 159.471 291.248 170.515 283.045C180.55 275.603 194.757 267.716 210.463 260.833C226.17 253.949 241.622 248.892 253.901 246.587C267.431 244.044 275.324 245.104 277.331 249.755C279.338 254.406 274.771 260.934 263.727 269.148V269.126Z" fill="#B2FFA9"/>
<path d="M265.374 262.806C252.52 265.241 236.058 270.541 221.293 277.001C203.394 284.826 187.592 293.914 177.681 302.066C171.164 303.126 161.817 303.803 160.526 300.86C159.099 297.596 167.595 290.148 172.844 286.247C182.642 278.975 196.561 271.245 212.025 264.48C227.489 257.715 242.615 252.754 254.611 250.493C258.496 249.742 262.438 249.327 266.394 249.253C270.019 249.253 273.007 249.817 273.723 251.367C274.788 253.876 270.019 258.865 265.374 262.806Z" fill="#0D1B1E"/>
<path d="M305.491 297.635C290.653 311.893 268.666 325.784 243.584 336.749C218.503 347.714 193.376 354.428 172.832 355.64C153.236 356.768 139.898 352.647 136.233 344.252L128.684 326.99C134.722 330.502 143.477 332.334 154.521 332.334C156.624 332.334 158.806 332.272 161.067 332.137C182.061 330.897 207.667 324.075 233.166 312.924C258.665 301.773 281.086 287.611 296.223 273.038C306.449 263.212 312.628 253.87 314.438 245.775L322.003 263.031C325.656 271.42 319.641 284.048 305.491 297.635Z" fill="#0D1B1E"/>
<path d="M152.742 40.9051C153.075 37.9167 152.528 35.3755 151.105 33.3361C146.888 27.3083 136.104 27.1395 119.931 32.7583C104.854 38.0113 86.7522 47.7856 69.0478 60.2349C51.3434 72.6842 36.0499 86.4244 25.9912 98.8642C20.4597 105.761 16.8311 111.816 15.2289 116.893C13.7345 121.628 13.9809 125.504 16.0208 128.395C16.9829 129.747 18.2791 130.827 19.7828 131.529L174.177 220.116L152.742 40.9051ZM21.9357 127.598L20.9124 127.014C20.4369 126.689 20.0221 126.283 19.6869 125.815C16.86 121.803 20.5217 112.772 29.4807 101.67C39.2671 89.5399 54.2238 76.1228 71.6016 63.8791C109.243 37.3903 141.764 27.8723 147.418 35.8968C147.515 36.0432 147.604 36.1943 147.685 36.3498L148.22 40.8604C148.087 41.7329 147.885 42.5935 147.616 43.4342C146.208 47.895 142.803 53.6243 137.623 60.048C127.838 72.1718 112.879 85.595 95.5035 97.8326C61.348 121.885 31.406 131.949 21.9318 127.61L21.9357 127.598ZM31.1172 132.864C35.6473 132.415 41.0584 131.13 47.1924 128.98C62.272 123.72 80.3716 113.952 98.0779 101.497C115.784 89.0413 131.076 75.3072 141.133 62.8735C144.276 59.0723 147.048 54.9794 149.412 50.6504L168.692 211.769L31.1172 132.864Z" fill="#0D1B1E"/>
<path d="M168.67 211.776L31.1134 132.877C35.6435 132.427 41.0547 131.142 47.1886 128.992C62.2683 123.733 80.3678 113.964 98.0741 101.509C115.78 89.0535 131.072 75.3194 141.129 62.8856C144.272 59.0845 147.044 54.9916 149.408 50.6626L168.67 211.776Z" fill="#B2FFA9"/>
<path d="M21.9317 127.61L20.9084 127.026C20.4329 126.701 20.0182 126.295 19.6829 125.827C16.856 121.815 20.5177 112.785 29.4767 101.682C39.2631 89.5522 54.2198 76.1351 71.5976 63.8914C109.239 37.4026 141.76 27.8845 147.414 35.909C147.511 36.0554 147.6 36.2066 147.681 36.3621L148.216 40.8725C148.083 41.7451 147.881 42.6057 147.612 43.4464C146.204 47.9071 142.799 53.6365 137.619 60.0603C127.834 72.184 112.875 85.6072 95.4995 97.8448C61.3479 121.885 31.4059 131.949 21.9317 127.61Z" fill="#0D1B1E"/>
</svg>
