<svg width="327" height="331" viewBox="0 0 327 331" fill="none" xmlns="http://www.w3.org/2000/svg">
<path d="M277.308 220.789C275.278 216.138 267.391 215.078 253.878 217.62C241.599 219.926 226.175 224.989 210.44 231.867C194.706 238.744 180.527 246.637 170.492 254.079C159.448 262.281 154.876 268.787 156.911 273.433C158.225 276.443 161.985 277.943 168.153 277.943C171.884 277.885 175.603 277.508 179.27 276.815L179.309 276.86L179.394 276.787C179.71 276.731 180.02 276.686 180.341 276.618C192.62 274.306 208.044 269.244 223.751 262.366C239.457 255.488 253.669 247.601 263.704 240.16C274.771 231.934 279.343 225.44 277.308 220.789ZM222.217 258.747C209.707 264.21 197.412 268.505 186.836 271.149C196.273 264.598 208.913 257.732 222.916 251.615C234.21 246.671 245.879 242.633 257.813 239.539C248.302 246.028 235.855 252.793 222.217 258.747ZM265.396 233.806C252.542 236.241 236.08 241.541 221.315 248.001C203.416 255.826 187.614 264.914 177.703 273.066C171.186 274.126 161.839 274.803 160.548 271.86C159.121 268.596 167.617 261.148 172.866 257.247C182.664 249.975 196.583 242.245 212.047 235.48C227.511 228.715 242.637 223.754 254.633 221.493C258.518 220.742 262.46 220.327 266.416 220.253C270.041 220.253 273.029 220.817 273.745 222.367C274.788 224.876 270.018 229.865 265.373 233.806H265.396Z" fill="#B2FFA9"/>
<path d="M325.6 232.447L313.603 205.003C309.166 194.856 294.807 189.991 273.147 191.265C252.159 192.505 226.553 199.326 201.054 210.472C175.555 221.617 153.134 235.796 137.992 250.369C122.353 265.393 116.18 279.251 120.617 289.387L132.613 316.837C136.56 325.913 148.517 330.778 166.518 330.778C168.622 330.778 170.806 330.711 173.069 330.575C194.057 329.335 219.663 322.514 245.162 311.362C270.661 300.211 293.082 286.044 308.225 271.476C323.863 256.447 330.031 242.584 325.6 232.447ZM124.23 287.809C120.56 279.42 126.575 266.808 140.726 253.205C155.564 238.953 177.551 225.062 202.632 214.097C227.714 203.132 252.841 196.417 273.384 195.211C275.543 195.076 277.624 195.019 279.625 195.019C295.799 195.019 306.719 199.118 309.989 206.588C313.653 214.976 307.644 227.588 293.488 241.191C278.655 255.449 256.669 269.345 231.587 280.311C206.505 291.276 181.379 297.979 160.835 299.196C141.239 300.352 127.9 296.203 124.23 287.809ZM305.49 268.641C290.652 282.893 268.665 296.784 243.584 307.749C218.502 318.714 193.375 325.434 172.832 326.64C153.236 327.768 139.897 323.647 136.233 315.252L128.684 297.99C134.722 301.502 143.477 303.334 154.521 303.334C156.624 303.334 158.806 303.272 161.066 303.137C182.061 301.903 207.667 295.075 233.166 283.93C258.664 272.784 281.085 258.617 296.222 244.044C306.449 234.212 312.627 224.876 314.437 216.78L322.003 234.031C325.656 242.42 319.641 255.048 305.49 268.635V268.641Z" fill="#B2FFA9"/>
<path d="M309.989 206.565C306.719 199.095 295.799 194.997 279.625 194.997C277.624 194.997 275.543 195.053 273.384 195.188C252.841 196.395 227.72 203.081 202.632 214.074C177.545 225.068 155.564 238.931 140.726 253.182C126.575 266.786 120.56 279.397 124.23 287.786C127.9 296.175 141.239 300.33 160.835 299.174C181.378 297.956 206.5 291.281 231.587 280.288C256.674 269.295 278.655 255.426 293.488 241.169C307.644 227.588 313.653 214.976 309.989 206.565ZM263.727 240.126C253.692 247.567 239.485 255.454 223.773 262.332C208.061 269.21 192.62 274.273 180.364 276.584C180.042 276.652 179.732 276.697 179.417 276.753L179.332 276.826L179.293 276.781C175.626 277.474 171.906 277.851 168.175 277.909C162.013 277.909 158.247 276.404 156.934 273.399C154.899 268.753 159.471 262.248 170.515 254.045C180.55 246.603 194.756 238.716 210.463 231.833C226.169 224.949 241.622 219.892 253.9 217.587C267.431 215.044 275.323 216.104 277.33 220.755C279.337 225.406 274.771 231.934 263.727 240.148V240.126Z" fill="#0D1B1E"/>
<path d="M265.373 233.806C252.519 236.241 236.058 241.541 221.293 248.001C203.393 255.826 187.591 264.914 177.68 273.066C171.163 274.126 161.816 274.803 160.525 271.86C159.099 268.596 167.595 261.148 172.843 257.247C182.641 249.975 196.561 242.245 212.025 235.48C227.488 228.715 242.614 223.754 254.611 221.493C258.496 220.742 262.438 220.327 266.394 220.253C270.018 220.253 273.006 220.817 273.722 222.367C274.788 224.876 270.019 229.865 265.373 233.806Z" fill="#B2FFA9"/>
<path d="M305.49 268.635C290.652 282.893 268.665 296.784 243.584 307.749C218.502 318.714 193.375 325.428 172.832 326.64C153.236 327.768 139.897 323.647 136.233 315.252L128.684 297.99C134.722 301.502 143.477 303.334 154.521 303.334C156.624 303.334 158.806 303.272 161.066 303.137C182.061 301.897 207.667 295.075 233.165 283.924C258.664 272.773 281.085 258.611 296.222 244.038C306.449 234.212 312.627 224.87 314.437 216.775L322.003 234.031C325.656 242.42 319.641 255.048 305.49 268.635Z" fill="#B2FFA9"/>
<path d="M152.742 40.9051C153.075 37.9167 152.528 35.3755 151.105 33.3361C146.888 27.3083 136.104 27.1395 119.931 32.7583C104.854 38.0113 86.7522 47.7856 69.0478 60.2349C51.3434 72.6842 36.0499 86.4244 25.9912 98.8642C20.4597 105.761 16.8311 111.816 15.2289 116.893C13.7345 121.628 13.9809 125.504 16.0208 128.395C16.9829 129.747 18.2791 130.827 19.7828 131.529L174.177 220.116L152.742 40.9051ZM21.9357 127.598L20.9124 127.014C20.4369 126.689 20.0221 126.283 19.6869 125.815C16.86 121.803 20.5217 112.772 29.4807 101.67C39.2671 89.5399 54.2238 76.1228 71.6016 63.8791C109.243 37.3903 141.764 27.8723 147.418 35.8968C147.515 36.0432 147.604 36.1943 147.685 36.3498L148.22 40.8604C148.087 41.7329 147.885 42.5935 147.616 43.4342C146.208 47.895 142.803 53.6243 137.623 60.048C127.838 72.1718 112.879 85.595 95.5035 97.8326C61.348 121.885 31.406 131.949 21.9318 127.61L21.9357 127.598ZM31.1172 132.864C35.6473 132.415 41.0584 131.13 47.1924 128.98C62.272 123.72 80.3716 113.952 98.0779 101.497C115.784 89.0413 131.076 75.3072 141.133 62.8735C144.276 59.0723 147.048 54.9794 149.412 50.6504L168.692 211.769L31.1172 132.864Z" fill="#B2FFA9"/>
<path d="M168.67 211.776L31.1134 132.877C35.6435 132.427 41.0547 131.142 47.1886 128.992C62.2683 123.733 80.3678 113.964 98.0741 101.509C115.78 89.0535 131.072 75.3194 141.129 62.8856C144.272 59.0845 147.044 54.9916 149.408 50.6626L168.67 211.776Z" fill="#0D1B1E"/>
<path d="M21.9317 127.61L20.9084 127.026C20.4329 126.701 20.0182 126.295 19.6829 125.827C16.856 121.815 20.5177 112.785 29.4767 101.682C39.2631 89.5522 54.2198 76.1351 71.5976 63.8914C109.239 37.4026 141.76 27.8845 147.414 35.909C147.511 36.0554 147.6 36.2066 147.681 36.3621L148.216 40.8725C148.083 41.7451 147.881 42.6057 147.612 43.4464C146.204 47.9071 142.799 53.6365 137.619 60.0603C127.834 72.184 112.875 85.6072 95.4995 97.8448C61.3479 121.885 31.4059 131.949 21.9317 127.61Z" fill="#B2FFA9"/>
</svg>
