<svg width="28" height="28" viewBox="0 0 28 28" fill="none" xmlns="http://www.w3.org/2000/svg">
<path fill-rule="evenodd" clip-rule="evenodd" d="M4.8125 6.125C4.08763 6.125 3.5 6.71263 3.5 7.4375V20.5625C3.5 21.2874 4.08763 21.875 4.8125 21.875H23.1875C23.9124 21.875 24.5 21.2874 24.5 20.5625V7.4375C24.5 6.71263 23.9124 6.125 23.1875 6.125H4.8125ZM1.75 7.4375C1.75 5.74613 3.12113 4.375 4.8125 4.375H23.1875C24.8789 4.375 26.25 5.74613 26.25 7.4375V20.5625C26.25 22.2539 24.8789 23.625 23.1875 23.625H4.8125C3.12113 23.625 1.75 22.2539 1.75 20.5625V7.4375Z" fill="#FDFDFD"/>
<path fill-rule="evenodd" clip-rule="evenodd" d="M5.43436 8.21284C5.73104 7.83139 6.28078 7.76267 6.66224 8.05936L14 13.7665L21.3378 8.05936C21.7193 7.76267 22.269 7.83139 22.5657 8.21284C22.8624 8.5943 22.7937 9.14404 22.4122 9.44072L14.5372 15.5657C14.2213 15.8115 13.7788 15.8115 13.4628 15.5657L5.58784 9.44072C5.20639 9.14404 5.13767 8.5943 5.43436 8.21284Z" fill="#FDFDFD"/>
</svg>
