<svg width="110" height="110" viewBox="0 0 110 110" fill="none" xmlns="http://www.w3.org/2000/svg">
<path d="M18.6914 85.293C20.8398 85.293 24.0625 80.7812 27.8223 80.1367C29.9707 80.1367 31.582 84.6484 36.9531 85.293C40.7129 85.293 42.3242 80.7812 46.084 80.7812C49.8438 80.7812 51.4551 85.293 55.2148 85.293C58.9746 85.293 60.5859 80.7812 64.3457 80.7812C68.1055 80.7812 69.7168 85.293 73.4766 85.293C77.2363 85.293 78.8477 80.7812 82.6074 80.7812C86.3672 80.7812 87.9785 85.293 91.7383 85.293" stroke="#0D1B1E" stroke-width="5" stroke-linecap="round" stroke-linejoin="round"/>
<path d="M26.0391 80.8027L23.5791 76.0977L86.958 72.0156C81.9736 76.5488 75.5713 80.2227 69.0938 83.2305" stroke="#0D1B1E" stroke-width="5" stroke-linecap="round" stroke-linejoin="round"/>
<path d="M40.2778 29.7222C51.063 33.02 66.145 48.9507 71.2798 66.0737C68.4653 64.9673 66.3599 63.8394 62.4067 64.8491C58.5825 50.938 51.7397 37.6499 40.2778 29.7222Z" stroke="#0D1B1E" stroke-width="5" stroke-linecap="round" stroke-linejoin="round"/>
<path d="M19.1467 24.7222C32.9612 30.6304 51.9104 47.0767 55.3909 68.98C39.4602 62.5562 27.3323 65.9829 18.8889 71.1929C31.7688 54.8218 25.9895 36.2056 19.1467 24.7222Z" stroke="#0D1B1E" stroke-width="5" stroke-linecap="round" stroke-linejoin="round"/>
</svg>
