<svg width="131" height="131" viewBox="0 0 131 131" fill="none" xmlns="http://www.w3.org/2000/svg">
<path d="M127.964 46.4665C131.257 57.3795 131.64 68.9638 129.074 80.0702C126.508 91.1766 121.083 101.419 113.336 109.782L109.791 113.361C99.3728 123.004 86.0995 128.994 71.9762 130.426C57.8529 131.859 43.6472 128.655 31.5055 121.3C19.3638 113.945 9.94576 102.838 4.6745 89.6576C-0.596769 76.4769 -1.43491 61.9385 2.28678 48.2393C6.00848 34.5401 14.0878 22.4246 25.3039 13.7231C36.52 5.02154 50.2634 0.20674 64.4577 0.00651113C78.652 -0.193718 92.5259 4.23146 103.983 12.6132C115.44 20.9949 123.858 32.8778 127.964 46.4665V46.4665Z" fill="#B2FFA9"/>
</svg>
