<svg width="151" height="204" viewBox="0 0 151 204" fill="none" xmlns="http://www.w3.org/2000/svg">
<path d="M211.035 24.9344C214.58 36.5317 214.816 48.8885 211.717 60.6127C208.618 72.337 202.306 82.9628 193.493 91.2934L91.505 203.835C95.9456 191.224 96.8044 177.63 93.9863 164.56C91.1682 151.491 84.7833 139.458 75.5404 129.798C66.2976 120.138 54.5583 113.228 41.6261 109.836C28.6938 106.444 15.0744 106.702 2.27994 110.581C1.51419 110.813 0.748434 111.044 5.49037e-05 111.333L105.528 -5.46511C113.767 -12.6226 123.666 -17.6051 134.323 -19.9587C144.98 -22.3124 156.056 -21.9625 166.544 -18.9408C177.031 -15.9192 186.595 -10.3218 194.366 -2.65858C202.137 5.00468 207.867 14.4904 211.035 24.9344Z" fill="#0D1B1E"/>
</svg>
