<svg width="110" height="110" viewBox="0 0 110 110" fill="none" xmlns="http://www.w3.org/2000/svg">
<path d="M55 103.125C81.5787 103.125 103.125 81.5787 103.125 55C103.125 28.4213 81.5787 6.875 55 6.875C28.4213 6.875 6.875 28.4213 6.875 55C6.875 81.5787 28.4213 103.125 55 103.125Z" fill="#028CB0"/>
<path d="M22.1904 55C22.1904 68.0017 29.7529 79.2 40.6893 84.523L25.0409 41.6494C23.1618 45.8494 22.1905 50.3989 22.1904 55ZM55 87.8096C58.8105 87.8096 62.4752 87.1406 65.9075 85.9482L65.6748 85.5119L55.5816 57.8796L45.7504 86.4717C48.6592 87.3441 51.7715 87.8096 55 87.8096ZM59.5083 39.6131L71.3756 74.8952L74.6625 63.9588C76.0588 59.4213 77.1347 56.1636 77.1347 53.3421C77.1347 49.27 75.6807 46.4777 74.459 44.3252C72.7719 41.591 71.2302 39.2934 71.2302 36.6173C71.2302 33.5923 73.4989 30.8 76.7566 30.8H77.164C71.1184 25.25 63.2067 22.1767 55 22.1904C49.566 22.1894 44.2172 23.5392 39.4343 26.1184C34.6517 28.6977 30.585 32.4254 27.6005 36.9662L29.6947 37.0246C33.1269 37.0246 38.4206 36.5881 38.4206 36.5881C40.2239 36.5011 40.4278 39.0895 38.6533 39.2934C38.6533 39.2934 36.8792 39.5261 34.8721 39.6131L46.8559 75.1568L54.0403 53.6329L48.9208 39.6131C47.7744 39.5498 46.6297 39.4529 45.4888 39.3223C43.7143 39.2061 43.9182 36.5011 45.6923 36.5881C45.6923 36.5881 51.1026 37.0246 54.3311 37.0246C57.7631 37.0246 63.0568 36.5881 63.0568 36.5881C64.8312 36.5011 65.064 39.0895 63.2895 39.2934C63.2895 39.2934 61.5154 39.4969 59.5083 39.6131ZM71.4921 83.3594C76.4555 80.4732 80.5747 76.3352 83.4381 71.3587C86.3015 66.3822 87.8089 60.7417 87.8096 55C87.8096 49.2989 86.3552 43.9471 83.7956 39.2642C84.3153 44.4163 83.5354 49.6165 81.5268 54.3892L71.4921 83.3594ZM55 92.8125C44.9714 92.8125 35.3537 88.8288 28.2625 81.7376C21.1713 74.6463 17.1875 65.0286 17.1875 55C17.1875 44.9714 21.1713 35.3537 28.2625 28.2625C35.3537 21.1713 44.9714 17.1875 55 17.1875C65.0286 17.1875 74.6463 21.1713 81.7376 28.2625C88.8288 35.3537 92.8125 44.9714 92.8125 55C92.8125 65.0286 88.8288 74.6463 81.7376 81.7376C74.6463 88.8288 65.0286 92.8125 55 92.8125Z" fill="white"/>
</svg>
